<svg width="20" height="20" viewBox="0 0 20 20" fill="none" xmlns="http://www.w3.org/2000/svg">
<path d="M0 4C0 1.79086 1.79086 0 4 0H5.09091C7.30005 0 9.09091 1.79086 9.09091 4V8.09091C9.09091 8.64319 8.64319 9.09091 8.09091 9.09091H4C1.79086 9.09091 0 7.30005 0 5.09091V4Z" fill="#3FB4B1"/>
<path d="M20 4C20 1.79086 18.2091 0 16 0H14.9091C12.7 0 10.9091 1.79086 10.9091 4V8.09091C10.9091 8.64319 11.3568 9.09091 11.9091 9.09091H16C18.2091 9.09091 20 7.30005 20 5.09091V4Z" fill="#3FB4B1"/>
<path d="M0 16C0 18.2091 1.79086 20 4 20H5.09091C7.30005 20 9.09091 18.2091 9.09091 16V11.9091C9.09091 11.3568 8.64319 10.9091 8.09091 10.9091H4C1.79086 10.9091 0 12.7 0 14.9091V16Z" fill="#3FB4B1"/>
<path d="M20 16C20 18.2091 18.2091 20 16 20H14.9091C12.7 20 10.9091 18.2091 10.9091 16V11.9091C10.9091 11.3568 11.3568 10.9091 11.9091 10.9091H16C18.2091 10.9091 20 12.7 20 14.9091V16Z" fill="#3FB4B1"/>
</svg>
